<?xml version="1.0" encoding="UTF-8"?>
<!DOCTYPE svg PUBLIC "-//W3C//DTD SVG 1.1//EN" "http://www.w3.org/Graphics/SVG/1.1/DTD/svg11.dtd">
<!-- Creator: CorelDRAW X7 -->
<svg xmlns="http://www.w3.org/2000/svg" xml:space="preserve" width="297mm" height="210mm" version="1.1" style="shape-rendering:geometricPrecision; text-rendering:geometricPrecision; image-rendering:optimizeQuality; fill-rule:evenodd; clip-rule:evenodd"
viewBox="0 0 29700 21000"
 xmlns:xlink="http://www.w3.org/1999/xlink">
 <defs>
  <style type="text/css">
   <![CDATA[
    .fil3 {fill:#785FAC}
    .fil4 {fill:#9684BD}
    .fil2 {fill:#96989A}
    .fil1 {fill:#A9ABAE}
    .fil0 {fill:#BDBFC1}
    .fil5 {fill:#FEFEFE}
    .fil7 {fill:#606062;fill-rule:nonzero}
    .fil6 {fill:#FF5A00;fill-rule:nonzero}
   ]]>
  </style>
 </defs>
 <g id="Camada_x0020_1">
  <metadata id="CorelCorpID_0Corel-Layer"/>
  <g id="_557011528">
   <g>
    <g>
     <path class="fil0" d="M4172 9098l-89 -8c-231,-21 -400,-271 -374,-556l2137 190c336,30 606,273 686,584l-2360 -210 0 0z"/>
     <path class="fil1" d="M6531 9830l-1984 -177c-232,-20 -400,-270 -375,-555l2360 210c22,83 30,172 22,263l-23 259z"/>
     <path class="fil2" d="M5018 10217c-232,-20 -400,-270 -375,-555l1888 168 -46 518 -1467 -131z"/>
    </g>
    <path class="fil3" d="M9440 10174c-458,1310 -2720,2826 -2720,2826 0,0 -795,-2674 -364,-3906 298,-851 1231,-1300 2082,-1002 852,298 1301,1231 1002,2082z"/>
    <path class="fil4" d="M6720 13000l0 0c0,0 0,0 0,0 0,0 -1,-5 -4,-13 -1,-2 -1,-5 -2,-8l1712 -4891 12 4c852,298 1301,1231 1002,2082 -458,1310 -2720,2826 -2720,2826z"/>
    <g>
     <path class="fil0" d="M3884 10403l-85 28c-221,73 -475,-90 -564,-362l2039 -670c321,-105 664,12 860,265l-2250 739 0 0z"/>
     <path class="fil1" d="M6339 10145l-1892 621c-221,72 -474,-91 -563,-363l2250 -739c53,69 96,147 124,234l81 247z"/>
     <path class="fil2" d="M5102 11098c-220,73 -474,-91 -563,-362l1800 -591 163 494 -1400 459z"/>
    </g>
    <path class="fil5" d="M9150 9634c0,691 -561,1252 -1252,1252 -691,0 -1251,-561 -1251,-1252 0,-691 560,-1251 1251,-1251 691,0 1252,560 1252,1251z"/>
    <path class="fil6" d="M8401 8936l162 212 -6 0c-4,-1 -10,-1 -18,-1 -88,0 -418,24 -640,355 -162,243 -262,359 -413,402 -48,-101 -151,-170 -270,-170 -166,0 -300,134 -300,299 0,166 134,300 300,300 137,0 253,-92 288,-217 258,-58 396,-236 570,-497 185,-277 470,-261 473,-261l7 0 15 0 -168 219 235 0 245 -321 -246 -320 -234 0zm-1096 1092l0 10c-2,47 -41,85 -89,85 -49,0 -90,-40 -90,-90 0,-49 41,-89 90,-89 48,0 87,37 89,84z"/>
   </g>
   <g>
    <g>
     <path class="fil7" d="M9717 12988l0 -24c0,-4 -2,-7 -5,-7l-101 0c-55,0 -64,-14 -64,-54l0 -282c0,-6 -4,-11 -10,-11l-26 0c-6,0 -11,5 -11,11l0 282c0,86 55,97 111,97 49,0 88,-3 101,-5 3,0 5,-4 5,-7zm1762 -115l0 -39c0,-77 -40,-127 -116,-127 -76,0 -115,50 -115,127l0 39c0,77 39,127 115,127 76,0 116,-50 116,-127zm-46 0c0,54 -22,87 -70,87 -49,0 -70,-34 -70,-87l0 -39c0,-54 22,-87 70,-87 49,0 70,34 70,87l0 39zm1751 113l0 -188c0,-54 -30,-91 -92,-91l-12 0c-31,0 -52,5 -67,19 -17,-15 -37,-19 -68,-19l-12 0c-62,0 -92,37 -92,91l0 188c0,6 3,10 9,10l27 0c6,0 9,-4 9,-10l0 -188c0,-45 20,-51 47,-51l12 0c33,0 45,6 45,35l0 204c0,6 3,10 9,10l27 0c6,0 9,-4 9,-10l0 -204c0,-29 12,-35 45,-35l12 0c27,0 47,6 47,51l0 188c0,6 3,10 9,10l27 0c6,0 9,-4 9,-10zm-3212 -10l0 -245c0,-7 -1,-10 -11,-12 -27,-7 -64,-12 -95,-12 -78,0 -113,50 -113,128l0 37c0,78 35,128 113,128 32,0 68,-5 95,-12 10,-2 11,-5 11,-12zm-45 -20c-15,3 -39,6 -61,6 -52,0 -68,-36 -68,-90l0 -37c0,-55 16,-89 68,-89 22,0 47,2 61,5l0 205zm336 -84l0 -38c0,-81 -38,-127 -114,-127 -16,0 -41,2 -60,5l0 -96c0,-6 -5,-10 -10,-10l-27 0c-5,0 -9,4 -9,10l0 363c0,7 1,11 11,12 32,6 64,9 95,9 78,0 114,-50 114,-128zm-46 0c0,56 -16,88 -68,88 -17,0 -43,-2 -60,-3l0 -206c17,-3 44,-4 60,-4 51,0 68,32 68,87l0 38zm329 1l0 -39c0,-77 -40,-127 -116,-127 -77,0 -115,50 -115,127l0 39c0,77 38,127 115,127 76,0 116,-50 116,-127zm-46 0c0,54 -22,87 -70,87 -49,0 -70,-34 -70,-87l0 -39c0,-54 22,-87 70,-87 49,0 70,34 70,87l0 39zm236 -134l0 -24c0,-7 -4,-8 -11,-8 -43,0 -79,2 -109,15 -5,2 -9,6 -9,12l0 252c0,6 4,10 9,10l27 0c6,0 10,-5 10,-10l0 -234c19,-4 36,-5 72,-5 10,0 11,-3 11,-8zm265 237l0 -245c0,-7 -1,-10 -11,-12 -27,-7 -64,-12 -95,-12 -78,0 -114,50 -114,128l0 37c0,78 36,128 114,128 31,0 68,-5 95,-12 10,-2 11,-5 11,-12zm-46 -20c-14,3 -39,6 -60,6 -52,0 -68,-36 -68,-90l0 -37c0,-55 16,-89 68,-89 21,0 46,2 60,5l0 205zm254 32l0 -18c0,-5 -4,-7 -11,-7l-42 0c-29,0 -39,-5 -39,-35l0 -181 81 0c6,0 10,-4 10,-9l0 -18c0,-6 -4,-9 -10,-9l-81 0 0 -55c0,-6 -3,-10 -8,-10 0,0 -1,0 -1,0l-26 4c-6,1 -10,5 -10,10l0 268c0,56 28,72 77,72 18,0 40,-2 49,-3 8,-1 11,-4 11,-9zm460 -249l0 -24c0,-7 -4,-8 -11,-8 -43,0 -79,2 -108,15 -6,2 -10,6 -10,12l0 252c0,6 4,10 10,10l27 0c5,0 9,-5 9,-10l0 -234c20,-4 37,-5 72,-5 10,0 11,-3 11,-8zm107 -84l0 -42c0,-6 -4,-10 -10,-10l-26 0c-6,0 -11,4 -11,10l0 42c0,5 5,10 11,10l26 0c6,0 10,-5 10,-10zm-1 331l0 -265c0,-6 -4,-10 -10,-10l-25 0c-6,0 -10,4 -10,10l0 265c0,6 4,10 10,10l25 0c6,0 10,-4 10,-10zm299 -113l0 -39c0,-77 -39,-127 -116,-127 -76,0 -115,50 -115,127l0 39c0,77 39,127 115,127 77,0 116,-50 116,-127zm-46 0c0,54 -21,87 -70,87 -49,0 -69,-34 -69,-87l0 -39c0,-54 21,-87 69,-87 49,0 70,34 70,87l0 39zm389 106l0 -363c0,-6 -5,-10 -10,-10l-26 0c-6,0 -10,4 -10,10l0 96c-20,-3 -45,-5 -61,-5 -76,0 -113,46 -113,127l0 38c0,78 36,128 113,128 32,0 63,-3 96,-9 9,-1 11,-5 11,-12zm-46 -22c-18,1 -43,3 -61,3 -51,0 -67,-32 -67,-88l0 -38c0,-55 16,-87 67,-87 17,0 44,1 61,4l0 206zm337 -100l0 -22c0,-74 -38,-128 -114,-128 -74,0 -115,55 -115,128l0 37c0,99 62,128 121,128 35,0 60,-3 90,-9 8,-1 10,-5 10,-12l0 -17c0,-6 -4,-8 -8,-8 -1,0 -2,0 -3,0 -24,4 -58,8 -89,8 -47,0 -75,-28 -75,-88l0 -6 174 0c6,0 9,-5 9,-11zm-46 -24l-137 0 0 -2c0,-54 25,-84 69,-84 46,0 68,28 68,84l0 2zm815 40l0 -39c0,-77 -40,-127 -116,-127 -76,0 -115,50 -115,127l0 39c0,77 39,127 115,127 76,0 116,-50 116,-127zm-46 0c0,54 -22,87 -70,87 -49,0 -70,-34 -70,-87l0 -39c0,-54 22,-87 70,-87 49,0 70,34 70,87l0 39zm327 -1l0 -38c0,-81 -38,-127 -113,-127 -17,0 -41,2 -61,5l0 -96c0,-6 -5,-10 -10,-10l-27 0c-5,0 -9,4 -9,10l0 363c0,7 2,11 11,12 32,6 64,9 96,9 77,0 113,-50 113,-128zm-46 0c0,56 -16,88 -67,88 -18,0 -44,-2 -61,-3l0 -206c17,-3 44,-4 61,-4 50,0 67,32 67,87l0 38zm159 -217l0 -42c0,-6 -4,-10 -10,-10l-26 0c-6,0 -11,4 -11,10l0 42c0,5 5,10 11,10l26 0c6,0 10,-5 10,-10zm-1 331l0 -265c0,-6 -4,-10 -10,-10l-25 0c-6,0 -10,4 -10,10l0 265c0,6 4,10 10,10l25 0c6,0 10,-4 10,-10zm128 0l0 -370c0,-6 -4,-10 -9,-10l-27 0c-6,0 -9,4 -9,10l0 370c0,6 4,10 9,10l27 0c6,0 9,-5 9,-10zm128 -331l0 -42c0,-6 -4,-10 -10,-10l-26 0c-6,0 -11,4 -11,10l0 42c0,5 5,10 11,10l26 0c6,0 10,-5 10,-10zm-1 331l0 -265c0,-6 -4,-10 -10,-10l-25 0c-6,0 -10,4 -10,10l0 265c0,6 4,10 10,10l25 0c6,0 10,-4 10,-10zm288 -7l0 -363c0,-6 -5,-10 -10,-10l-26 0c-6,0 -10,4 -10,10l0 96c-20,-3 -45,-5 -61,-5 -76,0 -113,46 -113,127l0 38c0,78 36,128 113,128 32,0 64,-3 96,-9 9,-1 11,-5 11,-12zm-46 -22c-18,1 -43,3 -61,3 -51,0 -67,-32 -67,-88l0 -38c0,-55 16,-87 67,-87 17,0 44,1 61,4l0 206zm327 19l0 -245c0,-7 -2,-10 -11,-12 -28,-7 -65,-12 -96,-12 -78,0 -113,50 -113,128l0 37c0,78 36,128 113,128 32,0 68,-5 96,-12 9,-2 11,-5 11,-12zm-46 -20c-15,3 -39,6 -61,6 -51,0 -67,-36 -67,-90l0 -37c0,-55 16,-89 67,-89 22,0 47,2 61,5l0 205zm327 23l0 -363c0,-6 -5,-10 -10,-10l-26 0c-6,0 -10,4 -10,10l0 96c-20,-3 -45,-5 -61,-5 -76,0 -113,46 -113,127l0 38c0,78 36,128 113,128 32,0 63,-3 96,-9 9,-1 11,-5 11,-12zm-46 -22c-18,1 -43,3 -61,3 -51,0 -67,-32 -67,-88l0 -38c0,-55 16,-87 67,-87 17,0 44,1 61,4l0 206zm337 -100l0 -22c0,-74 -38,-128 -114,-128 -74,0 -115,55 -115,128l0 37c0,99 62,128 121,128 35,0 60,-3 90,-9 8,-1 10,-5 10,-12l0 -17c0,-6 -4,-8 -8,-8 -1,0 -2,0 -3,0 -24,4 -58,8 -89,8 -47,0 -75,-28 -75,-88l0 -6 174 0c6,0 9,-5 9,-11zm-46 -24l-137 0 0 -2c0,-54 25,-84 69,-84 46,0 68,28 68,84l0 2z"/>
     <path class="fil7" d="M11488 12688l0 -20c0,-6 -4,-9 -10,-9l-104 0c-5,0 -9,4 -9,9l0 20c0,6 4,9 9,9l104 0c6,0 10,-3 10,-9z"/>
    </g>
    <path class="fil6" d="M12886 8840c-81,0 -153,16 -212,47 -59,32 -109,76 -147,129 -40,56 -70,120 -90,192 -21,73 -31,149 -31,227 0,78 10,155 31,228 20,71 50,136 90,191 38,54 88,97 148,129 58,32 130,48 211,48 82,0 154,-16 213,-48 59,-32 109,-75 148,-129 41,-56 71,-120 91,-191 21,-73 31,-150 31,-228 0,-78 -10,-154 -31,-227 -20,-71 -50,-136 -91,-191 -39,-54 -89,-98 -148,-130 -59,-31 -131,-47 -213,-47zm1275 2455l-168 0c-36,0 -72,6 -105,15 -31,9 -58,22 -80,40 -22,17 -39,37 -52,63 -12,25 -19,55 -19,90 0,71 21,120 65,151 50,37 113,54 191,54l168 0 0 -413zm0 -753l-175 0c-43,0 -85,5 -124,15 -36,9 -68,24 -95,43 -25,19 -45,43 -60,73 -15,29 -23,67 -23,111 0,41 7,77 21,106 14,28 32,51 56,69 25,19 56,34 91,44 37,10 78,16 123,16l186 0 0 -477zm353 -308l0 1783 -569 0c-70,0 -138,-8 -202,-26 -67,-18 -127,-47 -178,-86 -53,-40 -95,-91 -125,-152 -4,-7 -7,-14 -10,-21l0 582 -386 0 0 -809 -481 0 0 809 -386 0 0 -325 -191 0c-646,0 -961,-315 -961,-961l0 -729 0 0 0 -1172c0,-46 -4,-90 -11,-130 -7,-35 -18,-65 -35,-90 -15,-23 -35,-40 -61,-54 -26,-13 -61,-20 -105,-20 -44,0 -79,7 -105,20 -26,14 -46,31 -61,54 -17,25 -29,55 -35,90 -7,40 -11,84 -11,130l0 1172 -341 0 0 -1216c0,-177 48,-315 143,-408 95,-94 233,-141 410,-141 100,0 188,18 261,54 47,23 88,53 122,91 33,-38 74,-68 121,-91 74,-36 161,-54 261,-54 177,0 315,47 410,141 91,89 139,218 143,383 36,-95 86,-180 148,-254 70,-83 157,-149 259,-197 102,-49 220,-73 348,-73 131,0 249,24 351,73 102,48 189,114 259,197 70,82 123,179 160,288l2 6 0 -526 551 0c68,0 133,8 195,25 65,18 123,46 172,83 51,39 92,88 121,147 30,59 45,129 45,207 0,52 -8,101 -25,146 -16,46 -39,87 -68,122 -22,27 -47,51 -75,71 45,25 85,58 119,97 72,85 109,189 109,311 0,88 -18,165 -52,230 -34,65 -80,119 -137,163 -30,23 -64,43 -99,60zm-1084 1128c16,-36 36,-70 60,-99 22,-28 48,-52 78,-74 -47,-25 -88,-59 -124,-100 -4,-6 -9,-12 -14,-18l0 291zm-73 -764c8,-24 17,-47 29,-68 34,-67 82,-123 141,-168 40,-30 83,-55 131,-74l0 -515 -2 6c-37,108 -90,205 -160,287 -70,83 -157,150 -259,198 -75,36 -159,58 -250,68 116,24 210,72 282,145 35,35 65,75 88,121zm-794 568l481 0 0 -180c0,-52 -5,-101 -13,-146 -7,-40 -21,-74 -39,-102 -18,-27 -40,-47 -70,-62 -29,-15 -69,-23 -119,-23 -49,0 -89,8 -119,23 -29,15 -51,35 -69,62 -19,28 -32,63 -39,102 -8,45 -13,94 -13,146l0 180zm-386 482l0 -712c0,-201 54,-356 163,-462 89,-88 211,-140 364,-155 -59,-12 -114,-31 -166,-55 -102,-48 -189,-115 -259,-198 -62,-73 -112,-158 -148,-253l0 486 -341 0 0 -1172c0,-46 -4,-90 -11,-130 -6,-35 -18,-65 -34,-90 -15,-23 -36,-40 -62,-54 -26,-13 -61,-20 -105,-20 -44,0 -79,7 -105,20 -26,14 -46,31 -61,54 -17,25 -28,55 -35,90 -7,40 -11,84 -11,130l0 1093 0 0 0 808c0,457 163,620 620,620l191 0zm1822 -2378l163 0c35,0 70,-4 102,-14 30,-8 56,-21 77,-38 21,-17 38,-37 50,-62 13,-24 19,-53 19,-87 0,-68 -21,-116 -63,-146 -49,-35 -109,-52 -185,-52l-163 0 0 399zm0 730l170 0c41,0 82,-5 120,-15 35,-8 66,-23 91,-42 25,-18 44,-41 59,-70 14,-29 22,-65 22,-107 0,-40 -7,-75 -21,-103 -13,-27 -30,-50 -53,-67 -25,-19 -54,-33 -88,-42 -37,-11 -76,-16 -119,-16l-181 0 0 462z"/>
    <path class="fil6" d="M14932 8922c-47,0 -90,-16 -128,-46 -41,-33 -62,-79 -62,-131 0,-53 21,-98 62,-131 38,-31 81,-46 128,-46 47,0 90,15 129,45 41,33 64,79 64,132 0,53 -23,98 -64,131 -39,31 -82,46 -129,46z"/>
    <path class="fil6" d="M15267 9971c-126,-89 -177,-246 -177,-497l0 -377 -327 0 0 377c0,458 166,741 504,857l0 -360z"/>
   </g>
  </g>
  <g id="_557009368">
   <g>
    <g>
     <path class="fil0" d="M20994 6620l-91 -8c-236,-21 -408,-276 -382,-567l2181 194c343,31 618,279 700,595l-2408 -214 0 0z"/>
     <path class="fil1" d="M23401 7367l-2025 -180c-236,-21 -408,-276 -382,-567l2408 214c22,86 31,176 22,269l-23 264z"/>
     <path class="fil2" d="M21856 7763c-235,-21 -407,-276 -381,-567l1926 171 -47 529 -1498 -133z"/>
    </g>
    <path class="fil3" d="M26371 7719c-468,1337 -2777,2884 -2777,2884 0,0 -812,-2729 -371,-3986 304,-869 1255,-1327 2125,-1023 869,304 1327,1256 1023,2125z"/>
    <path class="fil4" d="M23594 10603l0 0c0,0 0,0 0,0 0,0 -1,-5 -4,-13 -1,-2 -1,-5 -2,-8l1748 -4992 12 4c869,304 1327,1256 1023,2125 -468,1337 -2777,2884 -2777,2884z"/>
    <g>
     <path class="fil0" d="M20699 7953l-87 28c-225,74 -484,-92 -575,-370l2081 -683c328,-107 678,12 878,271l-2297 754 0 0z"/>
     <path class="fil1" d="M23206 7689l-1932 634c-225,74 -484,-93 -575,-370l2297 -754c54,69 98,149 127,238l83 252z"/>
     <path class="fil2" d="M21943 8662c-225,74 -484,-93 -575,-370l1838 -603 165 504 -1428 469z"/>
    </g>
    <path class="fil5" d="M26074 7168c0,705 -572,1277 -1277,1277 -706,0 -1277,-572 -1277,-1277 0,-705 571,-1277 1277,-1277 705,0 1277,572 1277,1277z"/>
    <path class="fil6" d="M25310 6455l165 216 -6 0c-4,0 -10,0 -18,0 -90,0 -427,24 -653,362 -166,248 -268,366 -422,410 -49,-103 -154,-174 -276,-174 -169,0 -306,138 -306,306 0,169 137,306 306,306 140,0 258,-94 294,-222 263,-58 404,-240 582,-507 189,-283 480,-266 483,-266l7 0 15 0 -171 223 239 0 250 -327 -250 -327 -239 0zm-1119 1115l0 10c-2,48 -42,87 -91,87 -50,0 -91,-41 -91,-92 0,-50 41,-91 91,-91 49,0 89,38 91,86z"/>
   </g>
   <g>
    <path class="fil6" d="M23377 11254c-84,0 -156,16 -217,48 -61,33 -111,78 -150,132 -41,57 -72,123 -92,196 -21,74 -32,152 -32,232 0,79 11,157 32,232 20,73 51,139 92,195 39,55 90,99 150,132 61,32 133,49 217,49 83,0 156,-17 216,-49 61,-33 112,-77 152,-132 41,-57 72,-122 93,-195 21,-75 31,-153 31,-232 0,-80 -10,-158 -31,-232 -21,-73 -52,-139 -93,-195 -40,-55 -91,-100 -152,-133 -60,-32 -133,-48 -216,-48zm1301 2506l-172 0c-37,0 -73,5 -107,15 -32,9 -60,23 -82,41 -22,17 -39,38 -53,65 -13,25 -19,56 -19,91 0,72 21,123 66,155 52,37 115,55 195,55l172 0 0 -422zm0 -769l-179 0c-44,0 -87,5 -127,15 -37,10 -69,25 -96,45 -26,19 -46,44 -62,74 -15,30 -23,68 -23,113 0,42 7,79 21,108 15,29 33,53 57,71 26,19 57,34 93,45 38,10 80,16 125,16l191 0 0 -487zm360 -314l0 1820 -581 0c-72,0 -141,-9 -206,-27 -69,-19 -130,-48 -182,-87 -53,-41 -96,-93 -128,-155 -3,-7 -6,-15 -9,-22l0 593 -395 0 0 -825 -490 0 0 825 -395 0 0 -331 -194 0c-660,0 -981,-321 -981,-981l0 -744 0 0 0 -1196c0,-46 -4,-91 -11,-133 -7,-36 -19,-66 -36,-91 -15,-23 -36,-41 -62,-55 -27,-14 -63,-21 -108,-21 -44,0 -80,7 -107,21 -26,14 -47,32 -62,55 -17,25 -29,55 -36,91 -7,41 -11,86 -11,133l0 1196 -348 0 0 -1241c0,-181 49,-321 147,-417 96,-95 237,-143 417,-143 102,0 192,18 267,55 48,24 90,55 124,93 35,-38 76,-69 123,-93 76,-37 166,-55 267,-55 181,0 321,48 419,143 92,92 141,223 146,392 36,-97 87,-184 150,-259 72,-85 161,-153 265,-202 104,-49 224,-74 356,-74 133,0 253,25 358,74 104,49 192,117 264,202 71,84 126,182 163,293l2 6 0 -537 562 0c69,0 136,9 200,26 66,18 125,47 176,85 51,39 93,90 123,150 30,61 45,132 45,211 0,53 -8,103 -25,150 -17,46 -40,88 -70,124 -21,27 -47,51 -76,72 46,26 87,59 121,100 74,86 112,192 112,317 0,89 -18,168 -53,235 -35,65 -82,121 -140,165 -31,24 -65,45 -101,62zm-1106 1152c16,-38 36,-72 61,-102 22,-28 49,-53 79,-75 -48,-26 -90,-61 -126,-103 -5,-6 -10,-12 -14,-18l0 298zm-75 -781c8,-24 18,-47 29,-69 36,-68 84,-125 144,-171 41,-31 86,-56 134,-76l0 -525 -2 5c-37,111 -92,210 -163,294 -71,84 -160,152 -264,202 -77,36 -163,59 -256,69 118,24 215,73 288,148 36,36 66,77 90,123zm-810 580l490 0 0 -183c0,-54 -4,-104 -13,-150 -7,-40 -21,-75 -40,-104 -17,-27 -41,-47 -71,-63 -30,-16 -71,-23 -121,-23 -50,0 -92,7 -122,23 -29,16 -52,36 -70,63 -19,29 -33,64 -40,104 -9,46 -13,96 -13,150l0 183zm-395 492l0 -727c0,-205 56,-363 167,-472 91,-89 216,-142 372,-157 -60,-13 -117,-31 -170,-56 -104,-50 -193,-118 -265,-202 -63,-75 -113,-162 -150,-258l0 495 -348 0 0 -1196c0,-47 -4,-92 -11,-133 -7,-36 -19,-66 -36,-91 -15,-23 -36,-41 -62,-55 -27,-14 -63,-21 -108,-21 -44,0 -80,7 -107,21 -26,14 -47,32 -62,55 -17,25 -29,55 -36,91 -7,41 -11,86 -11,133l0 1116 0 0 0 824c0,467 166,633 633,633l194 0zm1860 -2427l167 0c36,0 71,-4 104,-14 30,-9 57,-22 79,-39 21,-17 38,-38 50,-63 13,-25 20,-54 20,-89 0,-70 -21,-119 -64,-149 -50,-36 -112,-54 -189,-54l-167 0 0 408zm0 745l173 0c43,0 84,-5 123,-15 36,-9 67,-23 93,-43 26,-19 45,-42 60,-72 15,-29 23,-65 23,-109 0,-41 -7,-76 -21,-105 -14,-28 -32,-50 -55,-68 -25,-19 -55,-34 -90,-43 -37,-11 -78,-16 -121,-16l-185 0 0 471z"/>
    <path class="fil6" d="M25465 11338c-49,0 -93,-16 -131,-47 -42,-34 -64,-80 -64,-134 0,-54 22,-100 64,-134 38,-31 82,-47 131,-47 48,0 92,16 131,47 42,33 65,80 65,134 0,54 -23,101 -65,134 -39,31 -83,47 -131,47z"/>
    <path class="fil6" d="M25806 12409c-128,-91 -181,-252 -181,-508l0 -384 -333 0 0 384c0,468 170,757 514,875l0 -367z"/>
   </g>
   <g>
    <path class="fil7" d="M20530 15488l0 -25c0,-4 -2,-6 -6,-6l-102 0c-57,0 -66,-15 -66,-56l0 -288c0,-6 -4,-10 -10,-10l-27 0c-6,0 -11,4 -11,10l0 288c0,88 56,99 113,99 50,0 90,-3 103,-5 4,0 6,-4 6,-7zm1797 -117l0 -41c0,-77 -40,-129 -118,-129 -78,0 -117,52 -117,129l0 41c0,78 39,129 117,129 78,0 118,-51 118,-129zm-46 0c0,54 -22,88 -72,88 -50,0 -71,-34 -71,-88l0 -41c0,-54 22,-88 71,-88 50,0 72,34 72,88l0 41zm1787 115l0 -192c0,-55 -31,-93 -95,-93l-12 0c-31,0 -53,5 -69,19 -16,-15 -37,-19 -68,-19l-13 0c-63,0 -94,38 -94,93l0 192c0,6 4,10 10,10l27 0c6,0 10,-4 10,-10l0 -192c0,-46 20,-52 47,-52l13 0c33,0 45,6 45,36l0 208c0,6 4,10 10,10l27 0c6,0 10,-4 10,-10l0 -208c0,-30 11,-36 45,-36l12 0c29,0 48,6 48,52l0 192c0,6 4,10 10,10l27 0c6,0 10,-4 10,-10zm-3278 -10l0 -251c0,-7 -2,-10 -11,-12 -28,-7 -66,-12 -98,-12 -79,0 -115,52 -115,131l0 37c0,80 36,131 115,131 33,0 70,-5 98,-12 9,-2 11,-5 11,-12zm-47 -21c-14,3 -39,6 -62,6 -52,0 -69,-36 -69,-92l0 -37c0,-56 17,-92 69,-92 23,0 48,3 62,6l0 209zm343 -86l0 -38c0,-83 -38,-130 -115,-130 -17,0 -42,2 -62,5l0 -98c0,-6 -5,-10 -10,-10l-27 0c-6,0 -10,5 -10,10l0 371c0,7 2,10 11,12 33,6 66,9 98,9 79,0 115,-51 115,-131zm-46 0c0,58 -17,90 -69,90 -18,0 -44,-1 -62,-3l0 -210c17,-4 45,-4 62,-4 52,0 69,32 69,89l0 38zm335 2l0 -41c0,-77 -40,-129 -118,-129 -78,0 -118,52 -118,129l0 41c0,78 40,129 118,129 78,0 118,-51 118,-129zm-47 0c0,54 -22,88 -71,88 -50,0 -71,-34 -71,-88l0 -41c0,-54 22,-88 71,-88 50,0 71,34 71,88l0 41zm241 -138l0 -24c0,-7 -4,-8 -11,-8 -44,0 -81,2 -111,15 -6,3 -9,6 -9,12l0 258c0,6 4,10 9,10l28 0c6,0 9,-5 9,-10l0 -239c20,-4 38,-5 74,-5 10,0 11,-3 11,-9zm271 243l0 -251c0,-7 -2,-10 -11,-12 -28,-7 -66,-12 -98,-12 -79,0 -115,52 -115,131l0 37c0,80 36,131 115,131 33,0 70,-5 98,-12 9,-2 11,-5 11,-12zm-47 -21c-15,3 -40,6 -62,6 -52,0 -69,-36 -69,-92l0 -37c0,-56 17,-92 69,-92 22,0 48,3 62,6l0 209zm259 33l0 -18c0,-6 -4,-8 -11,-8l-43 0c-29,0 -39,-5 -39,-36l0 -184 82 0c6,0 10,-4 10,-10l0 -18c0,-5 -4,-9 -10,-9l-82 0 0 -56c0,-6 -4,-10 -9,-10 0,0 -1,0 -1,0l-26 4c-6,1 -11,5 -11,10l0 273c0,58 29,74 78,74 19,0 41,-2 51,-3 8,-1 11,-4 11,-9zm469 -255l0 -24c0,-7 -4,-8 -11,-8 -44,0 -80,2 -110,15 -6,3 -10,6 -10,12l0 258c0,6 4,10 10,10l27 0c6,0 10,-5 10,-10l0 -239c20,-4 37,-5 73,-5 10,0 11,-3 11,-9zm110 -85l0 -43c0,-6 -5,-10 -11,-10l-27 0c-5,0 -10,4 -10,10l0 43c0,5 5,10 10,10l27 0c6,0 11,-5 11,-10zm-1 338l0 -271c0,-5 -5,-10 -11,-10l-25 0c-6,0 -11,5 -11,10l0 271c0,6 5,10 11,10l25 0c6,0 11,-4 11,-10zm305 -115l0 -41c0,-77 -41,-129 -118,-129 -78,0 -118,52 -118,129l0 41c0,78 40,129 118,129 77,0 118,-51 118,-129zm-47 0c0,54 -22,88 -71,88 -50,0 -71,-34 -71,-88l0 -41c0,-54 21,-88 71,-88 49,0 71,34 71,88l0 41zm396 108l0 -371c0,-6 -4,-10 -9,-10l-27 0c-6,0 -10,5 -10,10l0 98c-21,-3 -46,-5 -62,-5 -78,0 -116,47 -116,130l0 38c0,80 37,131 116,131 32,0 64,-3 97,-9 10,-2 11,-5 11,-12zm-46 -23c-18,2 -44,3 -62,3 -53,0 -69,-32 -69,-90l0 -38c0,-57 17,-89 69,-89 17,0 44,0 62,4l0 210zm344 -102l0 -23c0,-75 -39,-130 -116,-130 -76,0 -118,56 -118,131l0 37c0,102 63,131 124,131 35,0 61,-3 91,-9 9,-2 11,-5 11,-12l0 -18c0,-6 -5,-8 -9,-8 -1,0 -1,0 -2,0 -25,4 -60,8 -91,8 -49,0 -77,-28 -77,-89l0 -7 177 0c6,0 10,-4 10,-11zm-47 -24l-140 0 0 -3c0,-54 25,-85 71,-85 46,0 69,29 69,85l0 3zm831 41l0 -41c0,-77 -40,-129 -118,-129 -78,0 -118,52 -118,129l0 41c0,78 40,129 118,129 78,0 118,-51 118,-129zm-46 0c0,54 -23,88 -72,88 -50,0 -71,-34 -71,-88l0 -41c0,-54 22,-88 71,-88 50,0 72,34 72,88l0 41zm333 -2l0 -38c0,-83 -39,-130 -116,-130 -17,0 -41,2 -62,5l0 -98c0,-6 -4,-10 -10,-10l-27 0c-6,0 -9,5 -9,10l0 371c0,7 1,10 11,12 33,6 66,9 97,9 80,0 116,-51 116,-131zm-47 0c0,58 -16,90 -69,90 -18,0 -44,-1 -62,-3l0 -210c18,-4 46,-4 62,-4 52,0 69,32 69,89l0 38zm163 -221l0 -43c0,-6 -5,-10 -11,-10l-27 0c-5,0 -10,4 -10,10l0 43c0,5 5,10 10,10l27 0c6,0 11,-5 11,-10zm-1 338l0 -271c0,-5 -5,-10 -11,-10l-25 0c-6,0 -11,5 -11,10l0 271c0,6 5,10 11,10l25 0c6,0 11,-4 11,-10zm130 0l0 -378c0,-6 -4,-10 -9,-10l-28 0c-6,0 -9,5 -9,10l0 378c0,6 4,10 9,10l28 0c6,0 9,-5 9,-10zm131 -338l0 -43c0,-6 -5,-10 -10,-10l-27 0c-6,0 -11,4 -11,10l0 43c0,5 5,10 11,10l27 0c5,0 10,-5 10,-10zm-1 338l0 -271c0,-5 -5,-10 -10,-10l-26 0c-6,0 -11,5 -11,10l0 271c0,6 5,10 11,10l26 0c5,0 10,-4 10,-10zm293 -7l0 -371c0,-6 -4,-10 -9,-10l-27 0c-6,0 -10,5 -10,10l0 98c-21,-3 -46,-5 -62,-5 -78,0 -116,47 -116,130l0 38c0,80 37,131 116,131 32,0 64,-3 97,-9 10,-2 11,-5 11,-12zm-46 -23c-18,2 -44,3 -62,3 -53,0 -69,-32 -69,-90l0 -38c0,-57 17,-89 69,-89 17,0 44,0 62,4l0 210zm333 20l0 -251c0,-7 -2,-10 -11,-12 -28,-7 -66,-12 -98,-12 -79,0 -115,52 -115,131l0 37c0,80 36,131 115,131 33,0 70,-5 98,-12 9,-2 11,-5 11,-12zm-47 -21c-15,3 -39,6 -62,6 -52,0 -69,-36 -69,-92l0 -37c0,-56 17,-92 69,-92 23,0 48,3 62,6l0 209zm334 24l0 -371c0,-6 -5,-10 -10,-10l-27 0c-6,0 -10,5 -10,10l0 98c-21,-3 -46,-5 -62,-5 -77,0 -116,47 -116,130l0 38c0,80 37,131 116,131 32,0 65,-3 97,-9 10,-2 12,-5 12,-12zm-47 -23c-18,2 -44,3 -62,3 -53,0 -69,-32 -69,-90l0 -38c0,-57 17,-89 69,-89 17,0 44,0 62,4l0 210zm344 -102l0 -23c0,-75 -39,-130 -116,-130 -76,0 -118,56 -118,131l0 37c0,102 63,131 124,131 36,0 61,-3 91,-9 9,-2 11,-5 11,-12l0 -18c0,-6 -4,-8 -9,-8 -1,0 -1,0 -2,0 -25,4 -60,8 -91,8 -49,0 -77,-28 -77,-89l0 -7 177 0c7,0 10,-4 10,-11zm-47 -24l-140 0 0 -3c0,-54 25,-85 71,-85 46,0 69,29 69,85l0 3z"/>
    <path class="fil7" d="M22337 15182l0 -21c0,-6 -5,-9 -10,-9l-106 0c-6,0 -10,4 -10,9l0 21c0,6 4,9 10,9l106 0c5,0 10,-4 10,-9z"/>
   </g>
  </g>
 </g>
</svg>
