<?xml version="1.0" encoding="UTF-8" standalone="no"?>
<svg width="12163px" height="5001px" viewBox="0 0 12163 5001" version="1.1" xmlns="http://www.w3.org/2000/svg" xmlns:xlink="http://www.w3.org/1999/xlink" xmlns:sketch="http://www.bohemiancoding.com/sketch/ns">
    <!-- Generator: Sketch 3.3.3 (12081) - http://www.bohemiancoding.com/sketch -->
    <title>Slice 1</title>
    <desc>Created with Sketch.</desc>
    <defs></defs>
    <g id="Page-1" stroke="none" stroke-width="1" fill="none" fill-rule="evenodd" sketch:type="MSPage">
        <g id="Group" sketch:type="MSLayerGroup">
            <g transform="translate(471.000000, 535.000000)" id="Shape" sketch:type="MSShapeGroup">
                <path d="M466,564 L377,556 C146,535 -23,285 3,0 L2140,190 C2476,220 2746,463 2826,774 L466,564 L466,564 Z" fill="#BDBFC1"></path>
                <path d="M2825,1296 L841,1119 C609,1099 441,849 466,564 L2826,774 C2848,857 2856,946 2848,1037 L2825,1296 L2825,1296 Z" fill="#A9ABAE"></path>
                <path d="M1312,1683 C1080,1663 912,1413 937,1128 L2825,1296 L2779,1814 L1312,1683 L1312,1683 Z" fill="#96989A"></path>
            </g>
            <path d="M6205,2175 C5747,3485 3485,5001 3485,5001 C3485,5001 2690,2327 3121,1095 C3419,244 4352,-205 5203,93 C6055,391 6504,1324 6205,2175 L6205,2175 Z" id="Shape" fill="#785FAC" sketch:type="MSShapeGroup"></path>
            <path d="M3485,5001 L3485,5001 L3485,5001 C3485,5001 3484,4996 3481,4988 C3480,4986 3480,4983 3479,4980 L5191,89 L5203,93 C6055,391 6504,1324 6205,2175 C5747,3485 3485,5001 3485,5001 L3485,5001 Z" id="Shape" fill="#9684BD" sketch:type="MSShapeGroup"></path>
            <g transform="translate(0.000000, 1361.000000)" id="Shape" sketch:type="MSShapeGroup">
                <path d="M649,1043 L564,1071 C343,1144 89,981 0,709 L2039,39 C2360,-66 2703,51 2899,304 L649,1043 L649,1043 Z" fill="#BDBFC1"></path>
                <path d="M3104,785 L1212,1406 C991,1478 738,1315 649,1043 L2899,304 C2952,373 2995,451 3023,538 L3104,785 L3104,785 Z" fill="#A9ABAE"></path>
                <path d="M1867,1738 C1647,1811 1393,1647 1304,1376 L3104,785 L3267,1279 L1867,1738 L1867,1738 Z" fill="#96989A"></path>
            </g>
            <path d="M5915,1635 C5915,2326 5354,2887 4663,2887 C3972,2887 3412,2326 3412,1635 C3412,944 3972,384 4663,384 C5354,384 5915,944 5915,1635 L5915,1635 Z" id="Shape" fill="#FEFEFE" sketch:type="MSShapeGroup"></path>
            <path d="M5166,937 L5328,1149 L5322,1149 C5318,1148 5312,1148 5304,1148 C5216,1148 4886,1172 4664,1503 C4502,1746 4402,1862 4251,1905 C4203,1804 4100,1735 3981,1735 C3815,1735 3681,1869 3681,2034 C3681,2200 3815,2334 3981,2334 C4118,2334 4234,2242 4269,2117 C4527,2059 4665,1881 4839,1620 C5024,1343 5309,1359 5312,1359 L5319,1359 L5334,1359 L5166,1578 L5401,1578 L5646,1257 L5400,937 L5166,937 L5166,937 Z M4070,2029 L4070,2039 C4068,2086 4029,2124 3981,2124 C3932,2124 3891,2084 3891,2034 C3891,1985 3932,1945 3981,1945 C4029,1945 4068,1982 4070,2029 L4070,2029 Z" id="Shape" fill="#FF5A00" sketch:type="MSShapeGroup"></path>
        </g>
        <g id="Group" sketch:type="MSLayerGroup" transform="translate(6265.000000, 535.000000)">
            <g transform="translate(0.000000, 4069.000000)" id="Shape" fill="#606062" sketch:type="MSShapeGroup">
                <path d="M217,385 L217,361 C217,357 215,354 212,354 L111,354 C56,354 47,340 47,300 L47,18 C47,12 43,7 37,7 L11,7 C5,7 0,12 0,18 L0,300 C0,386 55,397 111,397 C160,397 199,394 212,392 C215,392 217,388 217,385 L217,385 Z M1979,270 L1979,231 C1979,154 1939,104 1863,104 C1787,104 1748,154 1748,231 L1748,270 C1748,347 1787,397 1863,397 C1939,397 1979,347 1979,270 L1979,270 Z M1933,270 C1933,324 1911,357 1863,357 C1814,357 1793,323 1793,270 L1793,231 C1793,177 1815,144 1863,144 C1912,144 1933,178 1933,231 L1933,270 L1933,270 Z M3684,383 L3684,195 C3684,141 3654,104 3592,104 L3580,104 C3549,104 3528,109 3513,123 C3496,108 3476,104 3445,104 L3433,104 C3371,104 3341,141 3341,195 L3341,383 C3341,389 3344,393 3350,393 L3377,393 C3383,393 3386,389 3386,383 L3386,195 C3386,150 3406,144 3433,144 L3445,144 C3478,144 3490,150 3490,179 L3490,383 C3490,389 3493,393 3499,393 L3526,393 C3532,393 3535,389 3535,383 L3535,179 C3535,150 3547,144 3580,144 L3592,144 C3619,144 3639,150 3639,195 L3639,383 C3639,389 3642,393 3648,393 L3675,393 C3681,393 3684,389 3684,383 L3684,383 Z M472,373 L472,128 C472,121 471,118 461,116 C434,109 397,104 366,104 C288,104 253,154 253,232 L253,269 C253,347 288,397 366,397 C398,397 434,392 461,385 C471,383 472,380 472,373 L472,373 Z M427,353 C412,356 388,359 366,359 C314,359 298,323 298,269 L298,232 C298,177 314,143 366,143 C388,143 413,145 427,148 L427,353 L427,353 Z M763,269 L763,231 C763,150 725,104 649,104 C633,104 608,106 589,109 L589,13 C589,7 584,3 579,3 L552,3 C547,3 543,7 543,13 L543,376 C543,383 544,387 554,388 C586,394 618,397 649,397 C727,397 763,347 763,269 L763,269 Z M717,269 C717,325 701,357 649,357 C632,357 606,355 589,354 L589,148 C606,145 633,144 649,144 C700,144 717,176 717,231 L717,269 L717,269 Z M1046,270 L1046,231 C1046,154 1006,104 930,104 C853,104 815,154 815,231 L815,270 C815,347 853,397 930,397 C1006,397 1046,347 1046,270 L1046,270 Z M1000,270 C1000,324 978,357 930,357 C881,357 860,323 860,270 L860,231 C860,177 882,144 930,144 C979,144 1000,178 1000,231 L1000,270 L1000,270 Z M1236,136 L1236,112 C1236,105 1232,104 1225,104 C1182,104 1146,106 1116,119 C1111,121 1107,125 1107,131 L1107,383 C1107,389 1111,393 1116,393 L1143,393 C1149,393 1153,388 1153,383 L1153,149 C1172,145 1189,144 1225,144 C1235,144 1236,141 1236,136 L1236,136 Z M1501,373 L1501,128 C1501,121 1500,118 1490,116 C1463,109 1426,104 1395,104 C1317,104 1281,154 1281,232 L1281,269 C1281,347 1317,397 1395,397 C1426,397 1463,392 1490,385 C1500,383 1501,380 1501,373 L1501,373 Z M1455,353 C1441,356 1416,359 1395,359 C1343,359 1327,323 1327,269 L1327,232 C1327,177 1343,143 1395,143 C1416,143 1441,145 1455,148 L1455,353 L1455,353 Z M1709,385 L1709,367 C1709,362 1705,360 1698,360 L1656,360 C1627,360 1617,355 1617,325 L1617,144 L1698,144 C1704,144 1708,140 1708,135 L1708,117 C1708,111 1704,108 1698,108 L1617,108 L1617,53 C1617,47 1614,43 1609,43 L1608,43 L1582,47 C1576,48 1572,52 1572,57 L1572,325 C1572,381 1600,397 1649,397 C1667,397 1689,395 1698,394 C1706,393 1709,390 1709,385 L1709,385 Z M2169,136 L2169,112 C2169,105 2165,104 2158,104 C2115,104 2079,106 2050,119 C2044,121 2040,125 2040,131 L2040,383 C2040,389 2044,393 2050,393 L2077,393 C2082,393 2086,388 2086,383 L2086,149 C2106,145 2123,144 2158,144 C2168,144 2169,141 2169,136 L2169,136 Z M2276,52 L2276,10 C2276,4 2272,0 2266,0 L2240,0 C2234,0 2229,4 2229,10 L2229,52 C2229,57 2234,62 2240,62 L2266,62 C2272,62 2276,57 2276,52 L2276,52 Z M2275,383 L2275,118 C2275,112 2271,108 2265,108 L2240,108 C2234,108 2230,112 2230,118 L2230,383 C2230,389 2234,393 2240,393 L2265,393 C2271,393 2275,389 2275,383 L2275,383 Z M2574,270 L2574,231 C2574,154 2535,104 2458,104 C2382,104 2343,154 2343,231 L2343,270 C2343,347 2382,397 2458,397 C2535,397 2574,347 2574,270 L2574,270 Z M2528,270 C2528,324 2507,357 2458,357 C2409,357 2389,323 2389,270 L2389,231 C2389,177 2410,144 2458,144 C2507,144 2528,178 2528,231 L2528,270 L2528,270 Z M2917,376 L2917,13 C2917,7 2912,3 2907,3 L2881,3 C2875,3 2871,7 2871,13 L2871,109 C2851,106 2826,104 2810,104 C2734,104 2697,150 2697,231 L2697,269 C2697,347 2733,397 2810,397 C2842,397 2873,394 2906,388 C2915,387 2917,383 2917,376 L2917,376 Z M2871,354 C2853,355 2828,357 2810,357 C2759,357 2743,325 2743,269 L2743,231 C2743,176 2759,144 2810,144 C2827,144 2854,145 2871,148 L2871,354 L2871,354 Z M3208,254 L3208,232 C3208,158 3170,104 3094,104 C3020,104 2979,159 2979,232 L2979,269 C2979,368 3041,397 3100,397 C3135,397 3160,394 3190,388 C3198,387 3200,383 3200,376 L3200,359 C3200,353 3196,351 3192,351 L3189,351 C3165,355 3131,359 3100,359 C3053,359 3025,331 3025,271 L3025,265 L3199,265 C3205,265 3208,260 3208,254 L3208,254 Z M3162,230 L3025,230 L3025,228 C3025,174 3050,144 3094,144 C3140,144 3162,172 3162,228 L3162,230 L3162,230 Z M3977,270 L3977,231 C3977,154 3937,104 3861,104 C3785,104 3746,154 3746,231 L3746,270 C3746,347 3785,397 3861,397 C3937,397 3977,347 3977,270 L3977,270 Z M3931,270 C3931,324 3909,357 3861,357 C3812,357 3791,323 3791,270 L3791,231 C3791,177 3813,144 3861,144 C3910,144 3931,178 3931,231 L3931,270 L3931,270 Z M4258,269 L4258,231 C4258,150 4220,104 4145,104 C4128,104 4104,106 4084,109 L4084,13 C4084,7 4079,3 4074,3 L4047,3 C4042,3 4038,7 4038,13 L4038,376 C4038,383 4040,387 4049,388 C4081,394 4113,397 4145,397 C4222,397 4258,347 4258,269 L4258,269 Z M4212,269 C4212,325 4196,357 4145,357 C4127,357 4101,355 4084,354 L4084,148 C4101,145 4128,144 4145,144 C4195,144 4212,176 4212,231 L4212,269 L4212,269 Z M4371,52 L4371,10 C4371,4 4367,0 4361,0 L4335,0 C4329,0 4324,4 4324,10 L4324,52 C4324,57 4329,62 4335,62 L4361,62 C4367,62 4371,57 4371,52 L4371,52 Z M4370,383 L4370,118 C4370,112 4366,108 4360,108 L4335,108 C4329,108 4325,112 4325,118 L4325,383 C4325,389 4329,393 4335,393 L4360,393 C4366,393 4370,389 4370,383 L4370,383 Z M4498,383 L4498,13 C4498,7 4494,3 4489,3 L4462,3 C4456,3 4453,7 4453,13 L4453,383 C4453,389 4457,393 4462,393 L4489,393 C4495,393 4498,388 4498,383 L4498,383 Z M4626,52 L4626,10 C4626,4 4622,0 4616,0 L4590,0 C4584,0 4579,4 4579,10 L4579,52 C4579,57 4584,62 4590,62 L4616,62 C4622,62 4626,57 4626,52 L4626,52 Z M4625,383 L4625,118 C4625,112 4621,108 4615,108 L4590,108 C4584,108 4580,112 4580,118 L4580,383 C4580,389 4584,393 4590,393 L4615,393 C4621,393 4625,389 4625,383 L4625,383 Z M4913,376 L4913,13 C4913,7 4908,3 4903,3 L4877,3 C4871,3 4867,7 4867,13 L4867,109 C4847,106 4822,104 4806,104 C4730,104 4693,150 4693,231 L4693,269 C4693,347 4729,397 4806,397 C4838,397 4870,394 4902,388 C4911,387 4913,383 4913,376 L4913,376 Z M4867,354 C4849,355 4824,357 4806,357 C4755,357 4739,325 4739,269 L4739,231 C4739,176 4755,144 4806,144 C4823,144 4850,145 4867,148 L4867,354 L4867,354 Z M5194,373 L5194,128 C5194,121 5192,118 5183,116 C5155,109 5118,104 5087,104 C5009,104 4974,154 4974,232 L4974,269 C4974,347 5010,397 5087,397 C5119,397 5155,392 5183,385 C5192,383 5194,380 5194,373 L5194,373 Z M5148,353 C5133,356 5109,359 5087,359 C5036,359 5020,323 5020,269 L5020,232 C5020,177 5036,143 5087,143 C5109,143 5134,145 5148,148 L5148,353 L5148,353 Z M5475,376 L5475,13 C5475,7 5470,3 5465,3 L5439,3 C5433,3 5429,7 5429,13 L5429,109 C5409,106 5384,104 5368,104 C5292,104 5255,150 5255,231 L5255,269 C5255,347 5291,397 5368,397 C5400,397 5431,394 5464,388 C5473,387 5475,383 5475,376 L5475,376 Z M5429,354 C5411,355 5386,357 5368,357 C5317,357 5301,325 5301,269 L5301,231 C5301,176 5317,144 5368,144 C5385,144 5412,145 5429,148 L5429,354 L5429,354 Z M5766,254 L5766,232 C5766,158 5728,104 5652,104 C5578,104 5537,159 5537,232 L5537,269 C5537,368 5599,397 5658,397 C5693,397 5718,394 5748,388 C5756,387 5758,383 5758,376 L5758,359 C5758,353 5754,351 5750,351 L5747,351 C5723,355 5689,359 5658,359 C5611,359 5583,331 5583,271 L5583,265 L5757,265 C5763,265 5766,260 5766,254 L5766,254 Z M5720,230 L5583,230 L5583,228 C5583,174 5608,144 5652,144 C5698,144 5720,172 5720,228 L5720,230 L5720,230 Z"></path>
                <path d="M1988,85 L1988,65 C1988,59 1984,56 1978,56 L1874,56 C1869,56 1865,60 1865,65 L1865,85 C1865,91 1869,94 1874,94 L1978,94 C1984,94 1988,91 1988,85 L1988,85 Z"></path>
            </g>
            <path d="M3386,306 C3305,306 3233,322 3174,353 C3115,385 3065,429 3027,482 C2987,538 2957,602 2937,674 C2916,747 2906,823 2906,901 C2906,979 2916,1056 2937,1129 C2957,1200 2987,1265 3027,1320 C3065,1374 3115,1417 3175,1449 C3233,1481 3305,1497 3386,1497 C3468,1497 3540,1481 3599,1449 C3658,1417 3708,1374 3747,1320 C3788,1264 3818,1200 3838,1129 C3859,1056 3869,979 3869,901 C3869,823 3859,747 3838,674 C3818,603 3788,538 3747,483 C3708,429 3658,385 3599,353 C3540,322 3468,306 3386,306 L3386,306 Z M4661,2761 L4493,2761 C4457,2761 4421,2767 4388,2776 C4357,2785 4330,2798 4308,2816 C4286,2833 4269,2853 4256,2879 C4244,2904 4237,2934 4237,2969 C4237,3040 4258,3089 4302,3120 C4352,3157 4415,3174 4493,3174 L4661,3174 L4661,2761 L4661,2761 Z M4661,2008 L4486,2008 C4443,2008 4401,2013 4362,2023 C4326,2032 4294,2047 4267,2066 C4242,2085 4222,2109 4207,2139 C4192,2168 4184,2206 4184,2250 C4184,2291 4191,2327 4205,2356 C4219,2384 4237,2407 4261,2425 C4286,2444 4317,2459 4352,2469 C4389,2479 4430,2485 4475,2485 L4661,2485 L4661,2008 L4661,2008 Z M5014,1700 L5014,3483 L4445,3483 C4375,3483 4307,3475 4243,3457 C4176,3439 4116,3410 4065,3371 C4012,3331 3970,3280 3940,3219 C3936,3212 3933,3205 3930,3198 L3930,3780 L3544,3780 L3544,2971 L3063,2971 L3063,3780 L2677,3780 L2677,3455 L2486,3455 C1840,3455 1525,3140 1525,2494 L1525,1765 L1525,593 C1525,547 1521,503 1514,463 C1507,428 1496,398 1479,373 C1464,350 1444,333 1418,319 C1392,306 1357,299 1313,299 C1269,299 1234,306 1208,319 C1182,333 1162,350 1147,373 C1130,398 1118,428 1112,463 C1105,503 1101,547 1101,593 L1101,1765 L760,1765 L760,549 C760,372 808,234 903,141 C998,47 1136,0 1313,0 C1413,0 1501,18 1574,54 C1621,77 1662,107 1696,145 C1729,107 1770,77 1817,54 C1891,18 1978,0 2078,0 C2255,0 2393,47 2488,141 C2579,230 2627,359 2631,524 C2667,429 2717,344 2779,270 C2849,187 2936,121 3038,73 C3140,24 3258,0 3386,0 C3517,0 3635,24 3737,73 C3839,121 3926,187 3996,270 C4066,352 4119,449 4156,558 L4158,564 L4158,38 L4709,38 C4777,38 4842,46 4904,63 C4969,81 5027,109 5076,146 C5127,185 5168,234 5197,293 C5227,352 5242,422 5242,500 C5242,552 5234,601 5217,646 C5201,692 5178,733 5149,768 C5127,795 5102,819 5074,839 C5119,864 5159,897 5193,936 C5265,1021 5302,1125 5302,1247 C5302,1335 5284,1412 5250,1477 C5216,1542 5170,1596 5113,1640 C5083,1663 5049,1683 5014,1700 L5014,1700 Z M3930,2828 C3946,2792 3966,2758 3990,2729 C4012,2701 4038,2677 4068,2655 C4021,2630 3980,2596 3944,2555 C3940,2549 3935,2543 3930,2537 L3930,2828 L3930,2828 Z M3857,2064 C3865,2040 3874,2017 3886,1996 C3920,1929 3968,1873 4027,1828 C4067,1798 4110,1773 4158,1754 L4158,1239 L4156,1245 C4119,1353 4066,1450 3996,1532 C3926,1615 3839,1682 3737,1730 C3662,1766 3578,1788 3487,1798 C3603,1822 3697,1870 3769,1943 C3804,1978 3834,2018 3857,2064 L3857,2064 Z M3063,2632 L3544,2632 L3544,2452 C3544,2400 3539,2351 3531,2306 C3524,2266 3510,2232 3492,2204 C3474,2177 3452,2157 3422,2142 C3393,2127 3353,2119 3303,2119 C3254,2119 3214,2127 3184,2142 C3155,2157 3133,2177 3115,2204 C3096,2232 3083,2267 3076,2306 C3068,2351 3063,2400 3063,2452 L3063,2632 L3063,2632 Z M2677,3114 L2677,2402 C2677,2201 2731,2046 2840,1940 C2929,1852 3051,1800 3204,1785 C3145,1773 3090,1754 3038,1730 C2936,1682 2849,1615 2779,1532 C2717,1459 2667,1374 2631,1279 L2631,1765 L2290,1765 L2290,593 C2290,547 2286,503 2279,463 C2273,428 2261,398 2245,373 C2230,350 2209,333 2183,319 C2157,306 2122,299 2078,299 C2034,299 1999,306 1973,319 C1947,333 1927,350 1912,373 C1895,398 1884,428 1877,463 C1870,503 1866,547 1866,593 L1866,1686 L1866,2494 C1866,2951 2029,3114 2486,3114 L2677,3114 L2677,3114 Z M4499,736 L4662,736 C4697,736 4732,732 4764,722 C4794,714 4820,701 4841,684 C4862,667 4879,647 4891,622 C4904,598 4910,569 4910,535 C4910,467 4889,419 4847,389 C4798,354 4738,337 4662,337 L4499,337 L4499,736 L4499,736 Z M4499,1466 L4669,1466 C4710,1466 4751,1461 4789,1451 C4824,1443 4855,1428 4880,1409 C4905,1391 4924,1368 4939,1339 C4953,1310 4961,1274 4961,1232 C4961,1192 4954,1157 4940,1129 C4927,1102 4910,1079 4887,1062 C4862,1043 4833,1029 4799,1020 C4762,1009 4723,1004 4680,1004 L4499,1004 L4499,1466 L4499,1466 Z" id="Shape" fill="#FF5A00" sketch:type="MSShapeGroup"></path>
            <path d="M5432,388 C5385,388 5342,372 5304,342 C5263,309 5242,263 5242,211 C5242,158 5263,113 5304,80 C5342,49 5385,34 5432,34 C5479,34 5522,49 5561,79 C5602,112 5625,158 5625,211 C5625,264 5602,309 5561,342 C5522,373 5479,388 5432,388 L5432,388 Z" id="Shape" fill="#FF5A00" sketch:type="MSShapeGroup"></path>
            <path d="M5767,1437 C5641,1348 5590,1191 5590,940 L5590,563 L5263,563 L5263,940 C5263,1398 5429,1681 5767,1797 L5767,1437 L5767,1437 Z" id="Shape" fill="#FF5A00" sketch:type="MSShapeGroup"></path>
        </g>
    </g>
</svg>